<?xml version="1.0" standalone="no"?>
<!DOCTYPE svg PUBLIC "-//W3C//DTD SVG 20010904//EN"
 "http://www.w3.org/TR/2001/REC-SVG-20010904/DTD/svg10.dtd">
<svg version="1.0" xmlns="http://www.w3.org/2000/svg"
 width="256.000000pt" height="256.000000pt" viewBox="0 0 256.000000 256.000000"
 preserveAspectRatio="xMidYMid meet">
<metadata>
Created by potrace 1.14, written by Peter Selinger 2001-2017
</metadata>
<g transform="translate(0.000000,256.000000) scale(0.100000,-0.100000)"
fill="#000000" stroke="none">
<path d="M1155 2381 c-263 -75 -420 -341 -345 -583 37 -121 115 -208 227 -254
122 -49 278 -15 357 78 90 105 81 268 -19 334 -57 37 -150 27 -175 -20 -20
-38 -9 -70 28 -81 38 -11 51 -43 33 -81 -17 -38 -94 -60 -141 -41 -74 31 -118
105 -116 192 3 103 60 185 161 231 201 92 441 -42 494 -277 17 -73 7 -186 -23
-258 -106 -260 -390 -376 -678 -277 -175 61 -374 46 -541 -41 -102 -52 -220
-172 -268 -273 -143 -295 -41 -625 236 -760 68 -33 149 -54 210 -54 101 0 242
55 309 121 101 99 142 217 123 352 -10 68 -35 118 -89 175 -107 113 -283 122
-380 19 -91 -95 -59 -252 52 -255 45 -1 62 19 55 62 -8 50 15 74 63 66 130
-21 126 -216 -6 -293 -65 -38 -173 -40 -246 -4 -193 95 -238 364 -92 544 172
213 495 219 699 14 80 -80 120 -157 157 -302 56 -219 152 -359 315 -457 245
-148 546 -117 742 78 119 119 170 248 160 409 -9 130 -48 221 -134 311 -193
201 -524 162 -640 -74 -70 -144 -2 -338 135 -383 93 -31 201 13 222 92 23 86
-38 142 -96 88 -29 -27 -61 -17 -79 24 -25 60 2 117 76 155 113 58 261 -27
300 -173 16 -57 4 -151 -28 -213 -102 -201 -383 -254 -580 -108 -126 92 -193
233 -189 392 6 178 54 276 206 421 124 117 201 257 225 408 9 57 7 189 -4 217
-5 12 -9 26 -9 31 -6 98 -109 263 -215 343 -71 53 -100 69 -176 96 -78 28
-235 33 -316 9z"/>
</g>
</svg>
